<svg xmlns="http://www.w3.org/2000/svg" width="240" height="240" viewBox="0 0 240 240" fill="none">
  <path d="M196.959 0H43.0414C19.2703 0 0 19.2703 0 43.0414V196.959C0 220.73 19.2703 240 43.0414 240H196.959C220.73 240 240 220.73 240 196.959V43.0414C240 19.2703 220.73 0 196.959 0Z" fill="#000" />
  <g transform="scale(6)">
    <path transform="translate(4, 8)" d="M 31.056 4.979 V 0.215 l -5.73 3.008 v -0.178 C 25.326 1.146 23.965 0 21.994 0 H 3.831 C 1.755 0 0.5 1.146 0.5 3.045 v 4.8 L 8.523 12 L 0.5 16.191 v 4.8 C 0.5 22.854 1.755 24 3.831 24 h 18.162 c 1.97 0 3.33 -1.146 3.33 -3.009 v -0.25 l 5.731 3.044 V 18.95 L 17.73 12 l 13.327 -7.021 Z M 13.11 14.363 l 9.852 5.16 H 3.22 l 9.888 -5.16 Z m 9.78 -9.885 L 13.109 9.6 L 3.222 4.478 h 19.666 Z" fill="#fff"/>
  </g>
</svg>